Coordinates
version=1
nRows=20
nColumns=34
inDegrees=yes

Units are S.I. units (second, meters, Newtons, ...)
If the header above contains a line with 'inDegrees', this indicates whether rotational values are in degrees (yes) or radians (no).

endheader
time	pelvis_tilt	pelvis_list	pelvis_rotation	pelvis_tx	pelvis_ty	pelvis_tz	hip_flexion_r	hip_adduction_r	hip_rotation_r	knee_angle_r	ankle_angle_r	subtalar_angle_r	mtp_angle_r	hip_flexion_l	hip_adduction_l	hip_rotation_l	knee_angle_l	ankle_angle_l	subtalar_angle_l	mtp_angle_l	lumbar_extension	lumbar_bending	lumbar_rotation	arm_flex_r	arm_add_r	arm_rot_r	elbow_flex_r	pro_sup_r	arm_flex_l	arm_add_l	arm_rot_l	elbow_flex_l	pro_sup_l
      0.00000000	     -5.32711559	     -2.95715618	     -0.84175526	     -0.54198516	      0.93762104	     -0.16469093	     10.70854560	      2.40550173	     -5.93854171	     15.52452315	     -2.24119805	    -21.59716527	      0.00000000	      2.76285384	     -5.45654556	     -6.49917334	      0.00000000	     15.92139811	      5.57282540	      0.00000000	      0.55672853	      3.24490052	     -7.15341672	      5.28789989	     -6.62551484	     28.15552813	     20.95424692	     46.57347172	     -4.49478365	     -7.02386557	     18.86158129	     22.08079032	     40.50575756
      0.01666670	     -7.11368736	     -1.10995101	     -0.77922265	     -0.53935885	      0.93450939	     -0.16447097	     12.52542911	      0.77479303	     -5.87764469	     15.11793238	      1.35210992	    -18.74687494	      0.00000000	      5.23284946	     -2.92874632	     -5.38918099	      0.00000000	     15.78784647	      4.54585324	      0.00000000	      2.78493129	      1.41691522	     -7.06933159	      1.53719821	     -4.47903985	      2.52327214	     25.44928877	     92.02640846	     -6.28730846	     -4.85764183	     -5.22757739	     23.90225677	     76.93788914
      0.03333330	     -7.50099265	      0.00562715	     -1.19078628	     -0.53939391	      0.93467986	     -0.16283398	     12.89692248	     -0.47202949	     -6.35374078	     15.13418418	      1.50423678	    -16.54540784	      0.00000000	      5.35844858	     -1.92392537	     -7.88686064	      0.00000000	     14.27519285	      4.87870588	      0.00000000	      3.38375247	      0.13865245	     -6.22515567	      0.60233738	     -4.68581599	      3.74086205	     26.75191664	     91.51904887	     -6.15969464	     -6.21282273	     -0.85320219	     23.85681473	     78.42316810
      0.05000000	     -7.15137099	      0.47835135	     -1.48867976	     -0.54034046	      0.93665966	     -0.16226410	     12.72982857	     -1.05026773	     -6.17256795	     15.46679909	      1.60684012	    -15.97847336	      0.00000000	      4.81747620	     -1.35090018	     -8.38698058	      0.00000000	     13.99256869	      4.11475120	      0.00000000	      2.99283573	     -0.36868096	     -5.29950390	      0.33136288	     -4.95461080	      5.05872198	     27.00312311	     91.18219630	     -5.64047871	     -6.97666384	      3.23044997	     23.48305038	     79.06897720
      0.06666670	     -7.05895941	      0.47989088	     -1.32791528	     -0.54091744	      0.93749786	     -0.16228131	     12.69675041	     -1.04451358	     -6.12408988	     15.50765571	      1.59389767	    -15.95600328	      0.00000000	      4.79329780	     -1.30086763	     -8.49271144	      0.00000000	     13.97439509	      4.05539143	      0.00000000	      3.05131835	     -0.33936941	     -5.26741031	      0.34694568	     -4.90854537	      5.07457583	     27.01357638	     91.18184919	     -5.59866302	     -7.02087533	      3.23630358	     23.48747548	     79.06526843
      0.08333330	     -6.14038584	      0.61993218	     -1.70394293	     -0.54199434	      0.93918941	     -0.16164167	     11.99093796	     -1.12656270	     -5.59438793	     15.73243177	      2.05077575	    -16.04522324	      0.00000000	      3.85219062	     -1.09763769	     -8.79414197	      0.00000000	     13.62310819	      3.29744112	      0.00000000	      1.73497899	     -0.47712025	     -4.39931861	      0.88569618	     -4.94376745	      5.61775853	     27.53490465	     91.21672460	     -4.59258763	     -7.17467666	      3.97034945	     23.37254457	     78.91256444
      0.10000000	     -6.01806201	      0.66699009	     -2.00909562	     -0.54223623	      0.93947376	     -0.16144637	     12.00802835	     -1.16807206	     -5.51252471	     15.72998792	      2.08682085	    -16.01669995	      0.00000000	      3.86566924	     -0.97302445	     -8.72162938	      0.00000000	     13.70956647	      3.25929551	      0.00000000	      1.68641194	     -0.41389275	     -4.19584654	      1.37230613	     -4.87088084	      5.65341496	     27.74318818	     91.21884397	     -4.45808657	     -7.17042348	      4.02470243	     23.37963836	     78.89313986
      0.11666670	     -5.09337734	      0.76598243	     -2.37967402	     -0.54363766	      0.94092067	     -0.16097161	     11.33256102	     -1.22487786	     -4.87709175	     16.00578692	      2.61015638	    -16.08533285	      0.00000000	      2.98549987	     -0.79307290	     -8.65994486	      0.00000000	     13.77367887	      2.71683572	      0.00000000	      0.04707789	     -0.54733392	     -3.64624468	      1.86251340	     -4.97970732	      6.09773030	     28.19496472	     91.27023073	     -3.51187836	     -7.25196860	      4.56389267	     23.20894744	     78.57363651
      0.13333330	     -4.97575148	      0.67564626	     -2.43260086	     -0.54412856	      0.94127113	     -0.16079621	     11.40682117	     -1.05629821	     -4.53811352	     16.08924614	      2.68121755	    -16.01071927	      0.00000000	      2.97076962	     -0.88289282	     -8.38004250	      0.00000000	     13.94265160	      2.75048875	      0.00000000	     -0.15265951	     -0.45144192	     -3.64360649	      2.09568284	     -4.93572101	      6.12821808	     28.30247853	     91.27097564	     -3.24980484	     -7.29669996	      4.61212701	     23.22811380	     78.52705483
      0.15000000	     -4.04125065	      0.52749603	     -2.48384229	     -0.54498306	      0.94281077	     -0.16085205	     10.38947607	     -0.90473604	     -4.43443828	     16.07424542	      2.59902339	    -16.17060899	      0.00000000	      1.92275567	     -1.02630249	     -8.22413357	      0.00000000	     13.75678533	      2.19112632	      0.00000000	     -1.58710995	     -0.30297688	     -3.44567961	      2.38385814	     -5.08847260	      6.36813472	     28.62923606	     91.28066597	     -2.49616629	     -7.32224207	      5.19426486	     22.89737671	     77.94323860
      0.16666670	     -4.01925803	      0.52319885	     -2.66595816	     -0.54483521	      0.94279555	     -0.16072864	     10.46171287	     -0.92027548	     -4.47414055	     16.03941496	      2.63532349	    -16.19985364	      0.00000000	      1.80407883	     -1.05628270	     -8.24471497	      0.00000000	     13.72514110	      2.17665169	      0.00000000	     -1.58342422	     -0.29713974	     -3.46600883	      2.38877461	     -5.08944852	      6.36900349	     28.63317679	     91.28044995	     -2.45836975	     -7.33141466	      5.19960271	     22.90374186	     77.93442813
      0.18333330	     -3.33587510	      0.49864464	     -3.24937158	     -0.54565491	      0.94382477	     -0.15998583	      9.98362394	     -0.86089970	     -4.07381387	     16.20406289	      3.18057737	    -16.20125815	      0.00000000	      0.93077098	     -1.08425107	     -8.82992789	      0.00000000	     13.28190869	      1.57016173	      0.00000000	     -2.56143779	     -0.30443534	     -2.77942411	      2.74326164	     -5.19704226	      6.49040037	     28.66541631	     91.30862334	     -1.99360299	     -7.34043920	      5.40754288	     22.83500930	     77.55617385
      0.20000000	     -3.28630442	      0.49761955	     -3.54872526	     -0.54571658	      0.94377336	     -0.15989455	     10.02317392	     -0.88699352	     -4.11889825	     16.13986539	      3.21249523	    -16.22159873	      0.00000000	      0.85296335	     -1.06175055	     -8.78228498	      0.00000000	     13.25681782	      1.59166253	      0.00000000	     -2.53899395	     -0.26273017	     -2.81605124	      2.74719648	     -5.20363467	      6.48987235	     28.66880449	     91.30866957	     -1.95534237	     -7.32889073	      5.41351478	     22.84393493	     77.54905978
      0.21666670	     -2.57243428	      0.37581136	     -3.60949893	     -0.54646643	      0.94502451	     -0.15987018	      9.19112038	     -0.74735578	     -3.88212467	     15.89322260	      3.57210648	    -16.08948032	      0.00000000	      0.00891556	     -1.16003924	     -8.84287992	      0.00000000	     13.01193475	      1.17779881	      0.00000000	     -3.53399347	     -0.09160117	     -2.69671128	      3.16767730	     -5.24807418	      6.53514465	     28.72154457	     91.34014551	     -1.52203871	     -7.28673557	      5.62951967	     22.57824568	     77.18974021
      0.23333330	     -2.55837401	      0.38366652	     -3.70684734	     -0.54654786	      0.94509873	     -0.15980671	      9.19768008	     -0.75133331	     -3.86045924	     15.73888616	      3.68338008	    -16.11571017	      0.00000000	      0.02568659	     -1.13452415	     -8.79024464	      0.00000000	     13.01821286	      1.21032220	      0.00000000	     -3.57070329	     -0.06167307	     -2.72657795	      3.14766747	     -5.24892380	      6.53701004	     28.71384495	     91.34135896	     -1.47599781	     -7.29771297	      5.63433012	     22.58297099	     77.17765753
      0.25000000	     -2.12261985	      0.21481673	     -3.60226119	     -0.54684535	      0.94599934	     -0.16000979	      8.51679373	     -0.50600547	     -3.66037074	     15.20701134	      4.50980647	    -15.83381042	      0.00000000	     -0.39136159	     -1.27727919	     -8.68228307	      0.00000000	     13.29009950	      1.46131306	      0.00000000	     -4.19379882	      0.10190705	     -2.69647655	      3.31471108	     -5.29438587	      6.52673301	     28.71353760	     91.37193830	     -1.13447393	     -7.26210369	      5.82396300	     22.38776662	     76.87108533
      0.26666670	     -2.11568703	      0.21385466	     -3.57282080	     -0.54689744	      0.94607068	     -0.15988506	      8.47872500	     -0.46822086	     -3.57815339	     15.07243534	      4.63025123	    -15.82617260	      0.00000000	     -0.36679908	     -1.29446080	     -8.55434747	      0.00000000	     13.27256383	      1.54831355	      0.00000000	     -4.14186609	      0.02335323	     -2.63261143	      3.58973884	     -5.33879393	      6.50349709	     28.82543010	     91.37195590	     -1.03815134	     -7.26775138	      5.83363205	     22.40034911	     76.84896983
      0.28333330	     -1.65405984	      0.01312523	     -3.08407118	     -0.54730944	      0.94662128	     -0.16035122	      7.55917848	     -0.23351184	     -3.64987124	     14.41113495	      4.74859396	    -15.41453347	      0.00000000	     -0.89085124	     -1.55992984	     -8.25108144	      0.00000000	     13.02598063	      1.68935095	      0.00000000	     -4.55320079	      0.14531436	     -2.74187600	      3.46973380	     -5.29054279	      6.37231321	     28.82896951	     91.37041671	     -0.67342660	     -7.25919436	      6.00465005	     22.13831793	     76.57643103
      0.30000000	     -1.61073542	      0.01937600	     -2.96361567	     -0.54726850	      0.94637332	     -0.16042830	      7.40675539	     -0.23536235	     -3.66193331	     14.27339388	      4.84932739	    -15.44433282	      0.00000000	     -0.87784077	     -1.56061729	     -8.18361425	      0.00000000	     12.84096629	      1.81832901	      0.00000000	     -4.43203252	      0.07412932	     -2.66302680	      3.70033418	     -5.37216019	      6.33024180	     28.91991625	     91.36709443	     -0.55127721	     -7.26808738	      6.01437879	     22.15154510	     76.54562719
      0.31666670	     -1.52425053	      0.00082141	     -2.97851775	     -0.54731815	      0.94627148	     -0.16039740	      7.29068618	     -0.20663651	     -3.68156208	     14.22712108	      4.89971716	    -15.44728525	      0.00000000	     -0.95280967	     -1.57747521	     -8.14630487	      0.00000000	     12.67250927	      1.91542951	      0.00000000	     -4.36441047	      0.02615665	     -2.53213986	      3.87732713	     -5.40514760	      6.30100988	     28.99533354	     91.36442106	     -0.50235574	     -7.24148091	      6.02299460	     22.13970748	     76.51831613
